<svg width="24" height="24" viewBox="0 0 24 24" fill="none" xmlns="http://www.w3.org/2000/svg">
<path d="M19.3083 8.74639C18.7082 7.39857 17.7471 6.24294 16.5312 5.40728C15.3153 4.57161 13.892 4.08846 12.4187 4.01125C10.9453 3.93403 9.47929 4.26576 8.1827 4.96975C7.50908 5.33549 6.89482 5.79432 6.35662 6.32996" stroke="#FAFAFA" stroke-width="1.5" stroke-linecap="round"/>
<path d="M3.23187 5.51544L3.96128 8.67497C4.08551 9.2131 4.62246 9.54864 5.16059 9.4244L8.32013 8.69499" stroke="#FAFAFA" stroke-width="1.5" stroke-linecap="round"/>
<path d="M4.69161 15.2539C5.2917 16.6017 6.25282 17.7574 7.46872 18.593C8.68462 19.4287 10.1079 19.9118 11.5813 19.989C13.0546 20.0663 14.5207 19.7345 15.8172 19.0305C16.4318 18.6969 16.9969 18.2858 17.5 17.8095" stroke="#FAFAFA" stroke-width="1.5" stroke-linecap="round"/>
<path d="M20.7681 18.4846L20.0387 15.325C19.9145 14.7869 19.3775 14.4514 18.8394 14.5756L15.6799 15.305" stroke="#FAFAFA" stroke-width="1.5" stroke-linecap="round"/>
</svg>
